HIERARCHY
ROOT Hips
{
	OFFSET 2.614123 106.211494 -0.877036
	CHANNELS 6 Xposition Yposition Zposition Xrotation Yrotation Zrotation
	JOINT Chest
	{
		OFFSET 0.288639 13.522850 1.789830
		CHANNELS 3 Xrotation Yrotation Zrotation
		JOINT Chest2
		{
			OFFSET -0.559170 21.218872 2.917736
			CHANNELS 3 Xrotation Yrotation Zrotation
			JOINT Chest3
			{
				OFFSET -0.460693 14.901215 -0.749410
				CHANNELS 3 Xrotation Yrotation Zrotation
				JOINT Neck
				{
					OFFSET 0.414212 17.205246 1.556870
					CHANNELS 3 Xrotation Yrotation Zrotation
					JOINT Head
					{
						OFFSET -0.541369 10.389648 1.260921
						CHANNELS 3 Xrotation Yrotation Zrotation
						End Site
						{
							OFFSET -0.536815 10.398407 1.188499
						}
					}
				}
				JOINT LeftCollar
				{
					OFFSET 4.687221 12.858963 3.805427
					CHANNELS 3 Xrotation Yrotation Zrotation
					JOINT LeftUpArm
					{
						OFFSET 14.432188 -5.196442 -8.556183
						CHANNELS 3 Xrotation Yrotation Zrotation
						JOINT LeftLowArm
						{
							OFFSET 4.068319 -33.435501 2.290038
							CHANNELS 3 Xrotation Yrotation Zrotation
							JOINT LeftHand
							{
								OFFSET -0.565197 -27.546715 11.908245
								CHANNELS 3 Xrotation Yrotation Zrotation
								End Site
								{
									OFFSET -0.123524 -6.020493 2.602617
								}
							}
						}
					}
				}
				JOINT RightCollar
				{
					OFFSET -3.712373 13.015060 4.316848
					CHANNELS 3 Xrotation Yrotation Zrotation
					JOINT RightUpArm
					{
						OFFSET -15.045645 -5.394257 -7.281952
						CHANNELS 3 Xrotation Yrotation Zrotation
						JOINT RightLowArm
						{
							OFFSET -4.465519 -33.238052 3.876353
							CHANNELS 3 Xrotation Yrotation Zrotation
							JOINT RightHand
							{
								OFFSET 5.637517 -27.161911 11.463165
								CHANNELS 3 Xrotation Yrotation Zrotation
								End Site
								{
									OFFSET 1.232137 -5.936501 2.505398
								}
							}
						}
					}
				}
			}
		}
	}
	JOINT LeftUpLeg
	{
		OFFSET 10.017042 -0.234169 0.152227
		CHANNELS 3 Xrotation Yrotation Zrotation
		JOINT LeftLowLeg
		{
			OFFSET 3.373206 -47.004700 -4.813537
			CHANNELS 3 Xrotation Yrotation Zrotation
			JOINT LeftFoot
			{
				OFFSET -0.183412 -42.688210 -13.351113
				CHANNELS 3 Xrotation Yrotation Zrotation
				JOINT LeftToe
				{
					OFFSET 0.075450 -16.620699 16.831711
					CHANNELS 3 Xrotation Yrotation Zrotation
					End Site
					{
						OFFSET 1.319958 -2.197634 23.515676
					}
				}
			}
		}
	}
	JOINT RightUpLeg
	{
		OFFSET -10.017051 0.233971 -0.152253
		CHANNELS 3 Xrotation Yrotation Zrotation
		JOINT RightLowLeg
		{
			OFFSET -3.494547 -47.241615 -0.172711
			CHANNELS 3 Xrotation Yrotation Zrotation
			JOINT RightFoot
			{
				OFFSET 1.388591 -42.214127 -14.717978
				CHANNELS 3 Xrotation Yrotation Zrotation
				JOINT RightToe
				{
					OFFSET -1.715039 -17.815992 15.466277
					CHANNELS 3 Xrotation Yrotation Zrotation
					End Site
					{
						OFFSET -4.493478 -3.976000 22.881350
					}
				}
			}
		}
	}
}
MOTION
Frames: 18
Frame Time: 0.033333
1.557792 106.198463 -1.111723 -0.304540 -1.513833 -0.662365 0.414467 -0.135893 0.908719 0.022169 -0.007422 -0.041958 -0.235018 -0.257965 -0.247717 -2.649374 1.739851 -1.395660 -0.000000 0.000001 0.000000 -0.220331 1.890820 -1.694000 3.684322 2.987336 0.986264 1.116150 0.071059 -0.589064 0.000003 -0.000001 -0.000002 -0.227737 -0.513543 1.194950 5.818150 -4.582555 -1.996163 -1.909470 -1.211197 -2.703234 -0.000000 -0.000007 0.000000 -3.138159 -0.271773 0.551102 4.449397 -0.726115 0.602619 -2.119550 2.229223 1.808120 -0.000001 0.000001 -0.000000 2.453446 -0.247604 1.628802 -1.940689 -0.392315 -0.640227 -1.349431 3.113426 0.626058 -0.000001 -0.000000 -0.000001 
1.572378 106.199875 -1.110478 0.087068 -1.403335 -0.623551 -0.176057 -0.095651 0.863017 0.167495 -0.039795 -0.035837 -0.263927 -0.194455 -0.201666 -2.192010 1.527767 -1.460410 0.000000 -0.000001 -0.000000 -0.215541 2.014667 -1.700155 3.736831 2.978970 0.941738 1.221785 -0.153552 -0.578891 0.000003 0.000001 -0.000002 -0.163820 -0.397189 1.326360 5.881924 -4.667234 -1.976134 -2.270249 -1.095078 -3.171765 0.000000 -0.000005 0.000003 -3.459958 -0.230158 0.511458 4.299100 -0.663935 0.534370 -1.861014 2.568022 1.893261 -0.000000 0.000001 0.000000 1.917015 -0.225152 1.529714 -1.662902 -0.372133 -0.587092 -1.318240 3.014993 0.516875 -0.000000 0.000000 -0.000000 
1.592744 106.200699 -1.108003 0.105331 -0.980557 -0.611455 -0.378587 -0.083405 0.834347 0.964870 -0.078055 0.020736 -0.754768 -0.237394 -0.263437 -2.422816 1.379080 -1.310076 -0.000000 -0.000000 -0.000000 -0.190286 1.911011 -1.514341 3.783272 3.004403 0.830525 0.966099 -0.311912 -0.832922 -0.000000 0.000003 -0.000002 -0.174966 -0.620983 1.210974 6.154295 -4.861549 -1.920952 -2.776017 -0.933142 -2.907041 -0.000003 -0.000006 0.000001 -3.313501 -0.204836 0.539010 4.333432 -0.636919 0.589745 -1.568510 2.166790 1.593911 -0.000001 0.000001 0.000000 2.077544 -0.252472 1.489963 -1.630169 -0.396785 -0.517258 -1.377944 2.629169 0.347620 -0.000000 0.000002 0.000000 
1.630232 106.203499 -1.105966 0.125118 -0.803692 -0.562653 -0.503171 -0.075502 0.756677 1.550303 -0.137484 0.083949 -1.233427 -0.403983 -0.288382 -2.235869 1.416353 -1.296713 0.000000 -0.000001 0.000000 -0.225622 1.904218 -1.331571 3.895712 3.204736 0.661901 0.902452 -0.249381 -0.996762 0.000005 -0.000002 -0.000000 -0.227075 -0.549177 0.994103 6.030917 -4.865864 -1.694362 -2.588879 -1.058569 -2.888533 0.000001 -0.000003 -0.000000 -3.113855 -0.169142 0.465309 4.064363 -0.537626 0.563217 -1.232400 1.841721 1.365542 -0.000001 0.000001 -0.000000 1.974428 -0.279452 1.387498 -1.579343 -0.463687 -0.527535 -1.233904 2.632778 0.394332 0.000001 0.000000 -0.000001 
1.675791 106.208244 -1.102705 0.005052 -0.766052 -0.588451 -0.523312 -0.108881 0.820990 1.443835 -0.086276 0.021490 -0.982420 -0.482363 -0.268392 -2.508871 1.442814 -1.226953 -0.000000 0.000000 -0.000000 -0.136639 2.042097 -1.383634 3.578399 2.798736 0.904786 1.041999 -0.415751 -1.221301 0.000005 -0.000001 -0.000001 -0.203388 -0.810730 1.035473 6.440384 -5.024145 -1.845496 -2.843449 -1.005711 -2.648092 -0.000000 -0.000003 0.000002 -3.099830 -0.207266 0.431294 4.168453 -0.570768 0.488611 -1.193112 1.723064 1.289751 -0.000002 0.000001 -0.000001 1.797384 -0.222216 1.317962 -1.140826 -0.434526 -0.482425 -1.510229 2.558797 0.330653 -0.000001 0.000000 -0.000001 
1.725230 106.207596 -1.098646 -0.063431 -0.981855 -0.534349 -0.174454 -0.090863 0.682812 1.542675 -0.066159 0.000296 -1.140814 -0.403548 -0.205845 -2.779681 1.406454 -1.088901 -0.000001 -0.000000 -0.000000 -0.191220 1.736775 -1.382274 3.436775 2.741626 0.672844 0.820099 -0.174130 -0.691868 0.000002 0.000003 -0.000001 -0.251825 -0.792004 0.937260 6.297411 -5.020046 -1.741070 -2.913347 -1.118307 -2.556728 0.000001 -0.000006 -0.000001 -2.689013 -0.204545 0.284498 3.692143 -0.522479 0.476602 -1.306736 1.919671 1.383482 -0.000001 0.000000 -0.000000 2.079909 -0.216443 1.133106 -1.376979 -0.334972 -0.454715 -1.516685 2.520152 0.495320 -0.000001 0.000000 0.000001 
1.783972 106.208961 -1.090047 0.066913 -0.515935 -0.619304 -0.303524 -0.105883 0.805772 1.269654 -0.157941 0.143103 -0.855428 -0.518567 -0.371062 -2.551999 1.218848 -0.999287 0.000000 0.000000 0.000000 -0.094079 1.325648 -1.383456 2.908549 2.349692 0.699251 1.167609 -0.089076 -0.596926 -0.000000 0.000001 -0.000001 -0.218864 -0.773661 1.033059 6.189808 -4.982925 -1.731627 -2.636744 -1.277311 -2.839429 0.000001 -0.000006 0.000001 -2.890809 -0.215724 0.374545 4.275197 -0.648203 0.465878 -1.601579 1.659202 1.268091 -0.000001 0.000000 -0.000000 1.829050 -0.201081 1.211984 -1.392869 -0.265144 -0.440423 -1.446927 2.078640 0.346396 -0.000000 0.000001 -0.000001 
1.845459 106.212029 -1.086113 -0.030155 -0.816727 -0.694609 0.359957 -0.128439 0.758869 0.415739 -0.033572 -0.005546 -0.353693 -0.215623 -0.135342 -2.411655 1.053517 -0.922013 0.000001 0.000000 -0.000000 -0.007805 1.446310 -1.013659 2.902551 2.148285 0.674934 1.811560 -0.394547 -1.035981 0.000005 0.000002 -0.000000 -0.135639 -0.755725 0.943240 5.893276 -4.552656 -1.668640 -2.377202 -1.126675 -3.036335 0.000002 -0.000004 -0.000001 -2.576513 -0.217617 0.400914 3.914866 -0.596992 0.361687 -1.053689 2.139244 1.388433 -0.000000 0.000001 -0.000000 1.974736 -0.184988 1.203087 -1.585285 -0.295209 -0.513911 -1.232625 2.433544 0.499981 0.000001 0.000001 -0.000002 
1.910024 106.215195 -1.076799 0.317096 -0.831045 -0.659981 -0.285304 -0.109814 0.735880 1.183722 -0.067367 0.036902 -0.803296 -0.246275 -0.226120 -2.285482 0.950587 -0.752395 0.000000 0.000000 -0.000000 -0.074046 1.616874 -0.856600 3.033267 2.183333 0.859127 1.522936 -0.493195 -1.569053 0.000003 0.000004 -0.000001 -0.123802 -0.638148 0.929924 5.805075 -4.430951 -1.559860 -2.292791 -1.196531 -3.160291 0.000001 -0.000007 0.000000 -3.033232 -0.248779 0.287496 4.078005 -0.639329 0.409923 -1.203752 1.957727 1.310677 -0.000000 0.000001 0.000001 1.764983 -0.153391 1.073831 -1.724326 -0.224956 -0.451222 -1.048305 2.182821 0.566397 -0.000001 -0.000000 -0.000000 
1.974602 106.214943 -1.067991 0.036686 -0.944993 -0.614694 0.061783 -0.067481 0.519322 0.796814 -0.048328 0.020785 -0.579069 -0.020575 -0.055374 -1.952368 0.784534 -0.616162 0.000000 -0.000000 -0.000000 -0.174342 1.352481 -0.663538 3.253455 2.447419 0.711328 1.455371 -0.388282 -1.681667 0.000004 -0.000002 -0.000000 -0.299220 -1.253368 0.971445 5.420255 -4.227757 -1.655626 -1.479842 -1.227896 -2.998115 0.000001 -0.000003 -0.000002 -2.382933 -0.208792 0.230257 3.465646 -0.546239 0.359421 -0.956391 2.058934 1.350423 -0.000001 0.000000 0.000000 2.240857 -0.192943 0.961885 -2.028885 -0.245316 -0.500622 -0.655522 2.251090 0.661084 0.000000 -0.000000 -0.000002 
2.045943 106.210716 -1.060939 0.212327 -0.722681 -0.496158 -0.306381 -0.037781 0.408497 0.342516 -0.119334 0.168185 -0.040579 -0.228097 -0.220312 -2.063681 0.652714 -0.550646 -0.000001 0.000000 -0.000000 -0.207889 1.805648 -0.590200 2.985493 2.188063 0.706534 1.542842 -0.544410 -1.599337 0.000003 -0.000000 0.000000 -0.278034 -1.556286 0.898512 4.728820 -3.667098 -1.599626 -0.516628 -1.117090 -3.042867 0.000002 -0.000007 -0.000002 -2.077360 -0.184698 0.073816 2.999858 -0.475572 0.343883 -0.862009 1.811917 1.157124 -0.000001 0.000001 -0.000000 1.935455 -0.129042 0.796952 -1.808686 -0.174417 -0.509232 -1.088700 2.044245 0.558490 -0.000000 0.000000 -0.000000 
2.114993 106.208679 -1.052706 0.269558 -0.832139 -0.514693 -0.326273 -0.047100 0.415385 0.340644 -0.107752 0.166309 -0.085646 -0.132958 -0.189580 -1.813601 0.611735 -0.495915 -0.000000 -0.000000 -0.000000 -0.124940 1.521780 -0.489064 2.889781 1.929247 0.529049 1.074526 -0.773376 -1.140871 0.000003 -0.000000 -0.000000 -0.264840 -1.816814 0.626240 4.583724 -3.364211 -1.397080 -0.511299 -0.795010 -3.005479 -0.000000 -0.000004 -0.000000 -1.976010 -0.169929 0.050597 2.961760 -0.445891 0.304469 -1.090831 1.825457 1.215029 -0.000001 0.000001 -0.000000 1.592049 -0.077856 0.781815 -1.357762 -0.111441 -0.512252 -1.172529 1.798918 0.512822 -0.000001 0.000001 -0.000001 
2.183992 106.205215 -1.043299 0.431745 -0.690526 -0.598463 -0.024368 -0.078222 0.524061 -0.078936 -0.092345 0.114372 -0.035338 -0.071048 -0.161509 -1.452975 0.463142 -0.391996 0.000000 0.000000 -0.000000 -0.126074 1.220754 -0.568410 2.702182 1.959974 0.539759 0.704847 -0.442564 -1.067421 0.000002 0.000002 -0.000000 -0.329094 -1.809508 0.574763 4.610047 -3.530627 -1.361156 -0.337937 -0.916777 -2.664182 0.000002 -0.000005 0.000002 -1.964865 -0.164284 0.122472 2.531637 -0.413117 0.329949 -0.990470 1.669127 1.076443 -0.000001 0.000001 0.000000 1.363658 -0.106537 0.819014 -1.617906 -0.150356 -0.470067 -0.678421 1.574421 0.477786 -0.000000 0.000000 -0.000001 
2.250076 106.195457 -1.022660 0.603971 -0.654084 -0.587137 -0.238905 -0.086485 0.489695 -0.103601 -0.082550 0.116613 -0.023559 0.248326 -0.120168 -1.227553 0.342727 -0.116090 -0.000000 0.000001 -0.000000 0.106242 1.119335 -0.276858 2.597726 1.393459 0.201135 0.830210 -0.986177 -0.479255 0.000004 0.000002 -0.000000 -0.216073 -2.679996 0.375605 4.178174 -2.686911 -1.043654 0.158203 -0.285203 -2.882509 0.000003 -0.000001 -0.000003 -1.572722 -0.097765 0.118910 1.708085 -0.346696 0.369465 -0.356483 1.487536 0.804849 -0.000001 0.000000 -0.000000 1.924394 -0.149870 0.795106 -2.431331 -0.169813 -0.552604 -0.492373 1.673317 0.553106 -0.000000 -0.000001 -0.000001 
2.313992 106.193199 -1.004718 0.398937 -0.393970 -0.490667 -0.039978 -0.053209 0.383405 -0.311377 -0.063003 0.072776 0.143499 -0.016432 -0.072570 -1.268281 0.314341 -0.087235 0.000001 0.000000 -0.000000 -0.067046 1.339414 -0.236133 2.578480 1.647881 0.230582 1.125794 -0.681867 -0.809883 0.000002 0.000005 -0.000002 -0.271672 -2.187818 0.378413 3.778474 -2.680669 -0.864550 0.130872 -0.596491 -2.838062 0.000001 -0.000003 -0.000002 -1.121518 -0.068215 0.066559 1.262848 -0.331774 0.342211 -0.262362 1.329819 0.667757 -0.000001 0.000001 -0.000000 2.085524 -0.180728 0.637150 -2.544687 -0.113630 -0.428482 -0.384762 1.312348 0.498488 -0.000001 -0.000000 -0.000000 
2.385156 106.198814 -0.994095 0.606502 -0.699631 -0.408851 -0.350957 -0.034513 0.439639 0.027424 -0.010633 -0.021606 -0.063824 0.129979 -0.079675 -1.237415 0.281408 -0.043906 0.000000 0.000001 -0.000000 -0.240508 1.081178 -0.278327 2.571686 2.105728 0.274225 1.354847 -0.035155 -1.053583 0.000002 0.000003 -0.000002 -0.467252 -1.899481 0.230441 3.323051 -2.799772 -0.623912 0.884369 -1.023369 -2.213066 0.000000 -0.000003 -0.000001 -1.257505 -0.080404 -0.066994 1.199203 -0.324070 0.266371 -0.257769 1.295251 0.687173 -0.000000 0.000000 -0.000000 1.391914 -0.135001 0.363462 -2.032498 -0.061154 -0.266308 -0.186826 1.287273 0.550211 0.000001 0.000002 -0.000000 
2.449189 106.195290 -0.972209 0.401435 -0.587300 -0.348577 -0.193175 -0.027928 0.403386 -0.394273 -0.065446 0.062031 0.216083 -0.147946 -0.144357 -0.944846 0.351691 -0.181493 -0.000000 0.000000 -0.000000 -0.343045 1.776869 -0.041004 2.466484 2.101300 0.172842 1.958179 0.041273 -1.263629 0.000007 0.000004 -0.000001 -0.338868 -0.990694 -0.019145 2.328185 -2.119836 -0.240286 1.866677 -0.989024 -2.155653 -0.000000 -0.000004 -0.000001 -0.831632 -0.031384 -0.078301 0.901486 -0.231430 0.244879 0.041152 1.016986 0.480706 -0.000001 0.000000 -0.000000 1.564835 -0.169816 0.282850 -2.051686 -0.109177 -0.241985 -0.368977 1.381509 0.535128 0.000000 0.000000 -0.000000 
2.504196 106.199776 -0.952207 0.595626 -0.401294 -0.402091 -0.826350 -0.028454 0.523828 0.341134 -0.150483 0.149323 -0.273744 -0.147000 -0.324778 -0.541792 0.199532 -0.101028 0.000000 -0.000000 -0.000000 -0.267863 1.114801 -0.123737 2.335959 2.069539 0.269892 1.790077 0.272271 -1.073244 0.000004 0.000002 -0.000000 -0.391514 -1.277633 0.004042 1.594186 -1.631088 -0.107953 2.792590 -1.014526 -1.846191 0.000001 -0.000005 -0.000003 -1.247340 -0.033293 0.000870 1.048482 -0.225618 0.231336 -0.082273 0.872905 0.436897 -0.000001 0.000000 0.000001 0.916749 -0.137852 0.292238 -1.441303 -0.056963 -0.091660 -0.243683 1.041488 0.408288 -0.000001 -0.000001 -0.000000 
